<svg xmlns="http://www.w3.org/2000/svg" xmlns:xlink="http://www.w3.org/1999/xlink" width="100" zoomAndPan="magnify" viewBox="0 0 810 809.999993" height="50" preserveAspectRatio="xMidYMid meet" version="1.0"><defs><g/><clipPath id="d3a7a0e178"><path d="M 0 106.78125 L 415.5 106.78125 L 415.5 703.03125 L 0 703.03125 Z M 0 106.78125 " clip-rule="nonzero"/></clipPath></defs><g clip-path="url(#d3a7a0e178)"><path fill="#e4c590" d="M 210.78125 475.953125 C 122.238281 475.953125 50.46875 404.179688 50.46875 315.65625 C 50.46875 227.113281 122.238281 155.34375 210.78125 155.34375 C 299.300781 155.34375 371.078125 227.113281 371.078125 315.65625 C 371.078125 404.179688 299.300781 475.953125 210.78125 475.953125 Z M 207.722656 106.757812 C 93.042969 106.757812 0.0546875 199.75 0.0546875 314.445312 C 0.0546875 363.589844 17.179688 408.714844 45.71875 444.289062 L 99.753906 530.617188 L 207.722656 703.050781 L 315.703125 530.617188 L 369.746094 444.289062 C 398.296875 408.714844 415.394531 363.589844 415.394531 314.445312 C 415.394531 199.75 322.433594 106.757812 207.722656 106.757812 " fill-opacity="1" fill-rule="nonzero"/></g><path fill="#e4c590" d="M 180.824219 250.582031 C 177.460938 226.179688 166.511719 211.371094 153.214844 211.371094 C 139.210938 211.371094 129.289062 228.429688 125.566406 250.582031 C 118.957031 290.257812 146.898438 289.34375 146.898438 305.746094 C 146.898438 334.023438 146.898438 423.207031 146.898438 423.207031 C 146.898438 426.753906 149.765625 429.625 153.316406 429.625 C 156.859375 429.625 159.699219 426.753906 159.699219 423.207031 C 159.699219 423.207031 159.699219 330.4375 159.699219 305.003906 C 159.699219 289.800781 185.757812 286.242188 180.824219 250.582031 " fill-opacity="1" fill-rule="nonzero"/><path fill="#e4c590" d="M 239.085938 211.152344 C 236.316406 211.152344 234.082031 213.410156 234.082031 216.179688 L 234.082031 263.988281 L 225.425781 263.988281 L 225.425781 216.179688 C 225.425781 213.410156 223.199219 211.152344 220.433594 211.152344 C 217.664062 211.152344 215.410156 213.410156 215.410156 216.179688 L 215.410156 263.988281 L 206.789062 263.988281 L 206.789062 216.179688 C 206.789062 213.410156 204.546875 211.152344 201.777344 211.152344 C 199.007812 211.152344 196.773438 213.410156 196.773438 216.179688 L 196.773438 272.488281 L 196.800781 272.488281 C 197.105469 279.300781 202.273438 283.59375 207.785156 287.046875 C 212.347656 289.902344 214.496094 294.59375 214.496094 300.207031 C 214.496094 329.96875 214.496094 422.863281 214.496094 422.863281 C 214.496094 426.601562 217.375 429.625 220.917969 429.625 C 224.457031 429.625 227.335938 426.601562 227.335938 422.863281 C 227.335938 422.863281 227.335938 326.199219 227.335938 299.433594 C 227.335938 294.640625 228.695312 289.902344 232.765625 287.152344 C 238.285156 283.445312 243.78125 279.421875 244.0625 272.488281 L 244.097656 272.488281 L 244.097656 216.179688 C 244.097656 213.410156 241.855469 211.152344 239.085938 211.152344 " fill-opacity="1" fill-rule="nonzero"/><path fill="#e4c590" d="M 277.9375 211.425781 C 259.011719 211.425781 256.625 309.644531 256.625 318.910156 C 256.625 328.167969 261.597656 335.671875 267.753906 335.671875 L 276.257812 335.671875 C 276.257812 367.71875 276.257812 422.941406 276.257812 422.941406 C 276.257812 426.628906 279.136719 429.625 282.671875 429.625 C 286.21875 429.625 289.089844 426.628906 289.089844 422.941406 L 289.089844 228.191406 C 289.089844 218.933594 284.097656 211.425781 277.9375 211.425781 " fill-opacity="1" fill-rule="nonzero"/><g fill="#ffffff" fill-opacity="1"><g transform="translate(439.484854, 359.9117)"><g><path d="M 9.484375 -12.53125 C 12.898438 -12.65625 15.492188 -13.066406 17.265625 -13.765625 C 19.046875 -14.460938 20.441406 -15.945312 21.453125 -18.21875 C 22.460938 -20.5 22.96875 -24.109375 22.96875 -29.046875 L 22.96875 -101.734375 C 22.96875 -108.828125 23.21875 -114.523438 23.71875 -118.828125 L 9.484375 -118.25 L 9.484375 -132.875 L 104.390625 -132.875 L 105.53125 -96.046875 L 93.015625 -96.046875 C 93.015625 -105.410156 90.765625 -111.894531 86.265625 -115.5 C 81.773438 -119.101562 76.367188 -120.78125 70.046875 -120.53125 L 63.203125 -120.34375 C 60.171875 -120.21875 57.769531 -119.804688 56 -119.109375 C 54.226562 -118.410156 52.863281 -116.859375 51.90625 -114.453125 C 50.957031 -112.046875 50.484375 -108.503906 50.484375 -103.828125 L 50.484375 -75.359375 L 72.703125 -75.359375 C 72.578125 -77.503906 72.320312 -83.007812 71.9375 -91.875 L 86.546875 -91.875 L 86.546875 -45.75 L 74.03125 -45.75 C 74.03125 -50.8125 73.238281 -54.539062 71.65625 -56.9375 C 70.070312 -59.34375 68.015625 -60.894531 65.484375 -61.59375 C 62.953125 -62.289062 59.597656 -62.578125 55.421875 -62.453125 L 50.484375 -62.265625 L 50.484375 -31.125 C 50.484375 -24.289062 50.234375 -18.722656 49.734375 -14.421875 L 75.171875 -14.421875 C 81.617188 -14.421875 87.085938 -16.601562 91.578125 -20.96875 C 96.078125 -25.332031 98.328125 -32.265625 98.328125 -41.765625 L 110.65625 -41.765625 L 109.71875 0 L 9.484375 0 Z M 9.484375 -12.53125 "/></g></g></g><g fill="#ffffff" fill-opacity="1"><g transform="translate(557.924346, 359.9117)"><g/></g></g><g fill="#ffffff" fill-opacity="1"><g transform="translate(607.843558, 359.9117)"><g><path d="M 7.59375 -14.234375 L 64.34375 -100.796875 C 69.914062 -109.273438 74.347656 -115.472656 77.640625 -119.390625 L 77.640625 -119.578125 L 45.171875 -120.53125 C 37.703125 -120.78125 31.816406 -118.628906 27.515625 -114.078125 C 23.210938 -109.523438 21.0625 -102.3125 21.0625 -92.4375 L 8.546875 -92.4375 L 9.6875 -132.875 L 106.296875 -132.875 L 106.296875 -118.625 L 51.625 -35.875 C 44.914062 -25.875 39.476562 -18.410156 35.3125 -13.484375 L 35.3125 -13.28125 L 70.046875 -12.53125 C 77.503906 -12.40625 83.351562 -14.585938 87.59375 -19.078125 C 91.832031 -23.566406 93.953125 -30.75 93.953125 -40.625 L 106.484375 -40.625 L 105.34375 0 L 7.59375 0 Z M 7.59375 -14.234375 "/></g></g></g><g fill="#e4c590" fill-opacity="1"><g transform="translate(431.401647, 497.063971)"><g><path d="M 8.171875 0 L 8.171875 -84.15625 L 62.515625 -84.15625 L 62.515625 -71.765625 L 23.5625 -71.765625 L 23.5625 -48.203125 L 55.0625 -48.203125 L 55.0625 -36.0625 L 23.5625 -36.0625 L 23.5625 0 Z M 8.171875 0 "/></g></g></g><g fill="#e4c590" fill-opacity="1"><g transform="translate(497.637303, 497.063971)"><g><path d="M 47.609375 1.4375 C 39.191406 1.4375 31.835938 -0.40625 25.546875 -4.09375 C 19.253906 -7.78125 14.320312 -12.890625 10.75 -19.421875 C 7.1875 -25.953125 5.40625 -33.503906 5.40625 -42.078125 C 5.40625 -50.648438 7.1875 -58.203125 10.75 -64.734375 C 14.320312 -71.265625 19.253906 -76.375 25.546875 -80.0625 C 31.835938 -83.75 39.191406 -85.59375 47.609375 -85.59375 C 55.941406 -85.59375 63.273438 -83.75 69.609375 -80.0625 C 75.941406 -76.375 80.867188 -71.265625 84.390625 -64.734375 C 87.921875 -58.203125 89.6875 -50.648438 89.6875 -42.078125 C 89.6875 -33.503906 87.921875 -25.953125 84.390625 -19.421875 C 80.867188 -12.890625 75.941406 -7.78125 69.609375 -4.09375 C 63.273438 -0.40625 55.941406 1.4375 47.609375 1.4375 Z M 47.609375 -12.375 C 55.617188 -12.375 62.007812 -15.019531 66.78125 -20.3125 C 71.550781 -25.601562 73.9375 -32.859375 73.9375 -42.078125 C 73.9375 -51.296875 71.550781 -58.546875 66.78125 -63.828125 C 62.007812 -69.117188 55.617188 -71.765625 47.609375 -71.765625 C 39.585938 -71.765625 33.171875 -69.117188 28.359375 -63.828125 C 23.554688 -58.546875 21.15625 -51.296875 21.15625 -42.078125 C 21.15625 -32.859375 23.554688 -25.601562 28.359375 -20.3125 C 33.171875 -15.019531 39.585938 -12.375 47.609375 -12.375 Z M 47.609375 -12.375 "/></g></g></g><g fill="#e4c590" fill-opacity="1"><g transform="translate(592.723331, 497.063971)"><g><path d="M 47.609375 1.4375 C 39.191406 1.4375 31.835938 -0.40625 25.546875 -4.09375 C 19.253906 -7.78125 14.320312 -12.890625 10.75 -19.421875 C 7.1875 -25.953125 5.40625 -33.503906 5.40625 -42.078125 C 5.40625 -50.648438 7.1875 -58.203125 10.75 -64.734375 C 14.320312 -71.265625 19.253906 -76.375 25.546875 -80.0625 C 31.835938 -83.75 39.191406 -85.59375 47.609375 -85.59375 C 55.941406 -85.59375 63.273438 -83.75 69.609375 -80.0625 C 75.941406 -76.375 80.867188 -71.265625 84.390625 -64.734375 C 87.921875 -58.203125 89.6875 -50.648438 89.6875 -42.078125 C 89.6875 -33.503906 87.921875 -25.953125 84.390625 -19.421875 C 80.867188 -12.890625 75.941406 -7.78125 69.609375 -4.09375 C 63.273438 -0.40625 55.941406 1.4375 47.609375 1.4375 Z M 47.609375 -12.375 C 55.617188 -12.375 62.007812 -15.019531 66.78125 -20.3125 C 71.550781 -25.601562 73.9375 -32.859375 73.9375 -42.078125 C 73.9375 -51.296875 71.550781 -58.546875 66.78125 -63.828125 C 62.007812 -69.117188 55.617188 -71.765625 47.609375 -71.765625 C 39.585938 -71.765625 33.171875 -69.117188 28.359375 -63.828125 C 23.554688 -58.546875 21.15625 -51.296875 21.15625 -42.078125 C 21.15625 -32.859375 23.554688 -25.601562 28.359375 -20.3125 C 33.171875 -15.019531 39.585938 -12.375 47.609375 -12.375 Z M 47.609375 -12.375 "/></g></g></g><g fill="#e4c590" fill-opacity="1"><g transform="translate(687.809359, 497.063971)"><g><path d="M 8.171875 0 L 8.171875 -84.15625 L 36.90625 -84.15625 C 46.757812 -84.15625 54.875 -82.410156 61.25 -78.921875 C 67.625 -75.429688 72.351562 -70.539062 75.4375 -64.25 C 78.519531 -57.957031 80.0625 -50.566406 80.0625 -42.078125 C 80.0625 -33.578125 78.519531 -26.179688 75.4375 -19.890625 C 72.351562 -13.597656 67.625 -8.707031 61.25 -5.21875 C 54.875 -1.738281 46.757812 0 36.90625 0 Z M 23.5625 -13.21875 L 36.1875 -13.21875 C 43.238281 -13.21875 48.804688 -14.359375 52.890625 -16.640625 C 56.984375 -18.929688 59.910156 -22.21875 61.671875 -26.5 C 63.429688 -30.789062 64.3125 -35.984375 64.3125 -42.078125 C 64.3125 -48.085938 63.429688 -53.253906 61.671875 -57.578125 C 59.910156 -61.910156 56.984375 -65.238281 52.890625 -67.5625 C 48.804688 -69.882812 43.238281 -71.046875 36.1875 -71.046875 L 23.5625 -71.046875 Z M 23.5625 -13.21875 "/></g></g></g></svg>